PathFileType	4	(X/Y/Z)	./resultDataOpenSim/trcMotMarkerGrf/sub09/qtm-12-07.trc
DataRate	CameraRate	NumFrames	NumMarkers	Units	OrigDataRate	OrigDataStartFrame	OrigNumFrames
250.000000	250.000000	6	24	m	250.000000	237	473
Frame#	Time	L.Toe.Tip			R.Toe.Tip			L.Ankle.Lat			R.Ankle.Lat			L.Ankle.Med			R.Ankle.Med			L.Heel			R.Heel			L.Knee.Lat			R.Knee.Lat			L.Knee.Med			R.Knee.Med			L.Thigh.Upper			R.Thigh.Upper			L.ASIS			R.ASIS			V.Sacral			L.Acromium			R.Acromium			C7			L.Elbow			R.Elbow			L.Wrist.Lat			R.Wrist.Lat
		X1	Y1	Z1	X2	Y2	Z2	X3	Y3	Z3	X4	Y4	Z4	X5	Y5	Z5	X6	Y6	Z6	X7	Y7	Z7	X8	Y8	Z8	X9	Y9	Z9	X10	Y10	Z10	X11	Y11	Z11	X12	Y12	Z12	X13	Y13	Z13	X14	Y14	Z14	X15	Y15	Z15	X16	Y16	Z16	X17	Y17	Z17	X18	Y18	Z18	X19	Y19	Z19	X20	Y20	Z20	X21	Y21	Z21	X22	Y22	Z22	X23	Y23	Z23	X24	Y24	Z24

237	0.944	0.13903032	0.014777423	0.027026794	0.30104928	0.1100813	0.15428974	-0.0094436748	0.048846951	-0.0069792016	0.1596445	0.14989766	0.17698435	0.012367461	0.068515004	0.088682772	0.18342781	0.17721304	0.08275531	-0.081372012	0.016921001	0.039834295	0.090210507	0.13368179	0.12494131	0.090784613	0.45219571	-0.066292606	0.34250483	0.56093017	0.20019407	0.090105832	0.45530275	0.05941684	0.3355108	0.5455769	0.074884892	0.091890041	0.87748682	-0.126352	0.10843678	0.8944012	0.24342952	0.18038404	0.96198304	-0.06958644	0.18257211	0.97533984	0.16860923	0.018297189	1.0278257	0.050920471	0.1983494	1.4173849	-0.10775408	0.16665202	1.4280199	0.21980569	0.115891	1.4744047	0.051894341	0.061019669	1.0721688	-0.18428317	0.0184031	1.1011309	0.30592123	0.25854495	0.88598017	-0.1849187	0.1197106	0.85469387	0.35487265
238	0.948	0.13905689	0.014697948	0.027030344	0.32114874	0.10975204	0.15348028	-0.0094985176	0.048939722	-0.0067599584	0.17873055	0.14575004	0.17630672	0.012643386	0.068584631	0.088691742	0.20179511	0.17389122	0.082156696	-0.081392347	0.01718832	0.040026033	0.11002412	0.12787469	0.12429562	0.091530425	0.45212332	-0.066189843	0.3507909	0.56229502	0.20006804	0.091008119	0.45520927	0.059558996	0.34340353	0.54664102	0.07518336	0.0972866	0.87722331	-0.12626213	0.11476957	0.89429782	0.24358546	0.18622004	0.96156961	-0.069702213	0.1886851	0.97518581	0.16851546	0.024284154	1.0274874	0.051098949	0.204302	1.4171707	-0.10782991	0.17270642	1.4277193	0.2197851	0.12183813	1.4741506	0.051884074	0.067513614	1.071489	-0.18444452	0.024441621	1.1010692	0.30585866	0.26700069	0.88720403	-0.18442423	0.12446827	0.85433933	0.35538959
239	0.952	0.13908716	0.014653709	0.027014882	0.34118154	0.10948117	0.15263153	-0.0095000084	0.049020751	-0.0065966059	0.19805859	0.14166837	0.17557084	0.012895696	0.068629508	0.088737219	0.2202092	0.17065686	0.081549228	-0.08137201	0.017407506	0.040237876	0.12988689	0.12220303	0.1236065	0.092284244	0.45206452	-0.066095701	0.35886816	0.56339778	0.19994273	0.091880571	0.455144	0.059688752	0.3512921	0.54749882	0.075399498	0.10260647	0.8768709	-0.1262646	0.12112287	0.89406722	0.24373941	0.19210252	0.96110651	-0.069822972	0.19482783	0.97494096	0.168427	0.030291635	1.0270625	0.051299755	0.21029815	1.416873	-0.10792461	0.178779	1.4273316	0.21977467	0.1277883	1.4738588	0.051785739	0.074010091	1.0707188	-0.18461865	0.030361078	1.1009399	0.30589283	0.27541658	0.8883545	-0.18393557	0.12932323	0.8539048	0.35589535
240	0.956	0.13911725	0.014622581	0.026993312	0.36122007	0.10925835	0.15172283	-0.0094947931	0.049102947	-0.0064356881	0.21761952	0.13764753	0.17477516	0.013072759	0.068666144	0.088843608	0.23868171	0.16750394	0.080931618	-0.08133806	0.01761364	0.040460515	0.14989561	0.11665508	0.122821	0.093042407	0.45201802	-0.066011307	0.3667745	0.56425478	0.19984263	0.092820615	0.45510226	0.059764381	0.35924383	0.54815902	0.075466911	0.1077986	0.87641841	-0.12641307	0.12747901	0.89371544	0.24389243	0.19801639	0.96059808	-0.069949938	0.20099321	0.97460725	0.16834389	0.036293935	1.0265544	0.051459669	0.21630552	1.4164925	-0.10801052	0.18486807	1.4268605	0.21977105	0.13373138	1.4734911	0.051522784	0.080503773	1.0698681	-0.18479142	0.036177556	1.1007397	0.30601906	0.28379597	0.889435	-0.183449	0.13427628	0.85339548	0.35638565
241	0.96	0.13914449	0.014593206	0.02696949	0.38128738	0.10908829	0.15077053	-0.009501021	0.049191615	-0.0062591022	0.23723693	0.13372191	0.17395823	0.013207511	0.068709738	0.088990575	0.25720907	0.16443238	0.080316986	-0.081308844	0.017828985	0.04069116	0.17011611	0.11121151	0.12187383	0.093795988	0.45198087	-0.065941642	0.37459321	0.56492701	0.19982197	0.093864478	0.4550755	0.059776289	0.36723713	0.54862994	0.075425919	0.11289451	0.8758796	-0.12666951	0.13382332	0.89324828	0.24404779	0.20394549	0.96004264	-0.070082534	0.2071675	0.97418125	0.16826598	0.04228638	1.025957	0.05159471	0.22230999	1.4160305	-0.10807026	0.19096859	1.4263095	0.21976815	0.13968627	1.4729839	0.051108414	0.086978751	1.0689399	-0.18492701	0.041947617	1.1004616	0.30621946	0.29214205	0.8904443	-0.182959	0.1393167	0.85281371	0.35685872
242	0.964	0.13916736	0.014563246	0.026943967	0.40136365	0.10900411	0.14981197	-0.0095255233	0.049290168	-0.0060730924	0.25667312	0.12994662	0.1731732	0.013343508	0.06876503	0.089156743	0.27579218	0.16145	0.079702554	-0.081288287	0.018058945	0.040938176	0.19050101	0.10588432	0.12078951	0.094538127	0.45195329	-0.065889992	0.38237158	0.56546373	0.19989572	0.094943555	0.45504396	0.059755422	0.37517124	0.5489135	0.075384831	0.11804152	0.87530857	-0.12686808	0.14015433	0.89267043	0.24420765	0.20988246	0.95943565	-0.070216458	0.21334137	0.97365768	0.16819306	0.048275911	1.0252679	0.051728983	0.22832095	1.4154912	-0.10811263	0.19707474	1.4256835	0.21976288	0.1456972	1.4723302	0.050692104	0.093423393	1.0679333	-0.18500044	0.047700158	1.1000944	0.3064449	0.30045408	0.89137758	-0.18246773	0.14443533	0.85215916	0.35731899
